<svg width="1440" height="385" viewBox="0 0 1440 385" fill="none" xmlns="http://www.w3.org/2000/svg">
<path fill-rule="evenodd" clip-rule="evenodd" d="M1455.29 219.214L1394.59 255.051C1333.89 290.889 1212.48 362.564 1091.17 380.322C969.864 398.08 848.65 361.921 727.5 289.817C606.349 217.713 484.833 352.83 363.555 352.616C242.278 352.401 121.239 216.856 60.5052 270.665L-0.228817 324.475L0.34301 0.97293L60.9817 1.08012C121.621 1.1873 242.898 1.40167 364.175 1.61605C485.453 1.83042 606.73 2.04479 728.008 2.25916C849.286 2.47353 970.563 2.6879 1091.84 2.90228C1213.12 3.11665 1334.4 3.33102 1395.03 3.43821L1455.67 3.54539L1455.29 219.214Z" fill="#E8B727"/>
</svg>
